<svg width="20" height="20" viewBox="0 0 20 20" fill="none" xmlns="http://www.w3.org/2000/svg">
<g clip-path="url(#clip0_2272_6279)">
<path d="M15.2946 13.8721L6.12789 4.70541C6.07811 4.65564 6.01654 4.61928 5.94891 4.59975C5.88128 4.58021 5.8098 4.57812 5.74115 4.59368C5.6725 4.60924 5.60891 4.64194 5.55631 4.68873C5.50372 4.73552 5.46384 4.79487 5.44039 4.86125L0.730806 18.2058C0.686261 18.3313 0.67244 18.4657 0.6905 18.5976C0.70856 18.7295 0.757975 18.8552 0.834606 18.9641C0.911237 19.073 1.01285 19.162 1.13094 19.2235C1.24902 19.2851 1.38014 19.3175 1.51331 19.3179C1.60884 19.3177 1.70365 19.3014 1.79372 19.2696L15.1387 14.5612C15.2051 14.5378 15.2644 14.4979 15.3112 14.4453C15.358 14.3927 15.3907 14.3291 15.4063 14.2605C15.4218 14.1918 15.4198 14.1204 15.4002 14.0527C15.3807 13.9851 15.3443 13.9235 15.2946 13.8737V13.8721Z" fill="url(#paint0_linear_2272_6279)"/>
<path d="M7.49997 3.74998C7.43193 3.74998 7.36493 3.73331 7.30481 3.70145C7.2447 3.66958 7.19331 3.62347 7.15512 3.56716C7.11694 3.51085 7.09312 3.44604 7.08576 3.37841C7.0784 3.31077 7.08771 3.24236 7.11288 3.17915L7.94622 1.09581C7.98721 0.993152 8.06732 0.910982 8.1689 0.86738C8.27048 0.823778 8.38522 0.822315 8.48788 0.863313C8.59054 0.904311 8.67271 0.984412 8.71632 1.08599C8.75992 1.18758 8.76138 1.30232 8.72038 1.40498L7.88705 3.48831C7.85607 3.56562 7.80263 3.63187 7.73364 3.67851C7.66464 3.72515 7.58325 3.75004 7.49997 3.74998Z" fill="#9C42E4"/>
<path d="M16.6666 12.9167C16.5697 12.9167 16.4758 12.883 16.401 12.8214C16.3263 12.7597 16.2754 12.6739 16.2571 12.5787C16.2388 12.4835 16.2542 12.3849 16.3008 12.2999C16.3473 12.2149 16.422 12.1488 16.512 12.1129L18.5954 11.2796C18.698 11.2386 18.8128 11.24 18.9144 11.2836C19.0159 11.3272 19.096 11.4094 19.137 11.5121C19.178 11.6147 19.1766 11.7295 19.133 11.8311C19.0894 11.9326 19.0072 12.0127 18.9045 12.0537L16.8212 12.8871C16.772 12.9067 16.7196 12.9167 16.6666 12.9167Z" fill="#D171DF"/>
<path d="M15 10.4167C14.8895 10.4167 14.7835 10.3728 14.7054 10.2946C14.6272 10.2165 14.5833 10.1105 14.5833 9.99999C14.5833 9.88948 14.6272 9.7835 14.7054 9.70536C14.7835 9.62722 14.8895 9.58332 15 9.58332C15.442 9.58332 15.8659 9.40773 16.1785 9.09517C16.4911 8.78261 16.6666 8.35868 16.6666 7.91666C16.6673 7.25382 16.9309 6.61832 17.3996 6.14962C17.8683 5.68092 18.5038 5.41732 19.1666 5.41666C19.2772 5.41666 19.3831 5.46056 19.4613 5.5387C19.5394 5.61684 19.5833 5.72282 19.5833 5.83332C19.5833 5.94383 19.5394 6.04981 19.4613 6.12795C19.3831 6.20609 19.2772 6.24999 19.1666 6.24999C18.7246 6.24999 18.3007 6.42558 17.9881 6.73815C17.6756 7.05071 17.5 7.47463 17.5 7.91666C17.4993 8.57949 17.2357 9.21499 16.767 9.68369C16.2983 10.1524 15.6628 10.416 15 10.4167Z" fill="#F1AE57"/>
<path d="M9.99998 5.41666C9.88947 5.41666 9.78349 5.37276 9.70535 5.29462C9.62721 5.21648 9.58331 5.1105 9.58331 4.99999C9.58397 4.33715 9.84758 3.70165 10.3163 3.23295C10.785 2.76426 11.4205 2.50065 12.0833 2.49999C12.5253 2.49999 12.9493 2.3244 13.2618 2.01183C13.5744 1.69927 13.75 1.27535 13.75 0.833323C13.75 0.722816 13.7939 0.616835 13.872 0.538695C13.9502 0.460555 14.0561 0.416656 14.1666 0.416656C14.2772 0.416656 14.3831 0.460555 14.4613 0.538695C14.5394 0.616835 14.5833 0.722816 14.5833 0.833323C14.5827 1.49616 14.319 2.13166 13.8503 2.60036C13.3817 3.06906 12.7462 3.33266 12.0833 3.33332C11.6413 3.33332 11.2174 3.50892 10.9048 3.82148C10.5922 4.13404 10.4166 4.55796 10.4166 4.99999C10.4166 5.1105 10.3727 5.21648 10.2946 5.29462C10.2165 5.37276 10.1105 5.41666 9.99998 5.41666Z" fill="#6BACE4"/>
<path d="M17.5 3.75C18.1904 3.75 18.75 3.19036 18.75 2.5C18.75 1.80964 18.1904 1.25 17.5 1.25C16.8096 1.25 16.25 1.80964 16.25 2.5C16.25 3.19036 16.8096 3.75 17.5 3.75Z" fill="#D171DF"/>
<path d="M12.5 7.91665C12.4176 7.91664 12.337 7.89219 12.2685 7.8464C12.2 7.80062 12.1466 7.73555 12.1151 7.65943C12.0836 7.5833 12.0753 7.49954 12.0914 7.41872C12.1074 7.33791 12.1471 7.26367 12.2054 7.2054L14.7054 4.7054C14.784 4.6295 14.8892 4.58751 14.9985 4.58846C15.1077 4.58941 15.2122 4.63323 15.2895 4.71048C15.3667 4.78773 15.4105 4.89224 15.4115 5.00149C15.4124 5.11073 15.3704 5.21599 15.2945 5.29457L12.7945 7.79457C12.7164 7.87272 12.6104 7.91663 12.5 7.91665Z" fill="#9C42E4"/>
</g>
<defs>
<linearGradient id="paint0_linear_2272_6279" x1="8.0497" y1="4.58337" x2="6.5" y2="21.5" gradientUnits="userSpaceOnUse">
<stop stop-color="#C189EE"/>
<stop offset="1" stop-color="#7625B8"/>
</linearGradient>
<clipPath id="clip0_2272_6279">
<rect width="20" height="20" fill="white"/>
</clipPath>
</defs>
</svg>
